<svg xmlns="http://www.w3.org/2000/svg" xmlns:xlink="http://www.w3.org/1999/xlink" aria-hidden="true" role="img" class="iconify iconify--weather" width="32" height="32" preserveAspectRatio="xMidYMid meet" viewBox="0 0 512 512">
    <path fill="#FFA500" d="M256 0C114.84 0 0 114.84 0 256s114.84 256 256 256 256-114.84 256-256S397.16 0 256 0zm0 480C132.48 480 32 379.52 32 256S132.48 32 256 32s224 100.48 224 224-100.48 224-224 224zm0-416c-70.692 0-128 57.308-128 128 0 70.692 57.308 128 128 128 70.692 0 128-57.308 128-128 0-70.692-57.308-128-128-128zm0 240c-52.935 0-96-43.065-96-96 0-52.935 43.065-96 96-96 52.935 0 96 43.065 96 96 0 52.935-43.065 96-96 96zm0-176c-44.112 0-80 35.888-80 80 0 44.112 35.888 80 80 80 44.112 0 80-35.888 80-80 0-44.112-35.888-80-80-80z"/>
</svg>